<svg width="235" height="48" viewBox="0 0 235 48" fill="none" xmlns="http://www.w3.org/2000/svg">
<path d="M60.64 37L54.2 25.72H50V37H46.6V8.2H52.6C55.72 8.2 58.16 8.92 59.92 10.36C61.68 11.7733 62.56 14.0133 62.56 17.08C62.56 18.1733 62.4267 19.1467 62.16 20C61.8933 20.8267 61.5333 21.56 61.08 22.2C60.6267 22.84 60.0933 23.3867 59.48 23.84C58.8667 24.2933 58.2133 24.6667 57.52 24.96L64.68 37H60.64ZM50 10.8V23.12H52.68C54.76 23.12 56.3467 22.6267 57.44 21.64C58.5333 20.6267 59.08 19.1067 59.08 17.08C59.08 15.0533 58.5867 13.5067 57.6 12.44C56.6133 11.3467 54.9333 10.8 52.56 10.8H50ZM71.675 22.6C71.675 19.8 71.9683 17.4533 72.555 15.56C73.1417 13.64 73.915 12.0933 74.875 10.92C75.835 9.74667 76.9283 8.90667 78.155 8.4C79.4083 7.86667 80.7017 7.6 82.035 7.6C83.3683 7.6 84.6483 7.86667 85.875 8.4C87.1283 8.90667 88.235 9.74667 89.195 10.92C90.155 12.0933 90.9283 13.64 91.515 15.56C92.1017 17.4533 92.395 19.8 92.395 22.6C92.395 25.4 92.1017 27.76 91.515 29.68C90.9283 31.5733 90.155 33.1067 89.195 34.28C88.235 35.4533 87.1283 36.3067 85.875 36.84C84.6217 37.3467 83.3417 37.6 82.035 37.6C80.7017 37.6 79.4083 37.3467 78.155 36.84C76.9283 36.3067 75.835 35.4533 74.875 34.28C73.915 33.1067 73.1417 31.5733 72.555 29.68C71.9683 27.76 71.675 25.4 71.675 22.6ZM75.155 22.6C75.155 26.6533 75.7283 29.7333 76.875 31.84C78.0217 33.9467 79.7417 35 82.035 35C84.3283 35 86.0483 33.9467 87.195 31.84C88.3417 29.7333 88.915 26.6533 88.915 22.6C88.915 18.5467 88.3417 15.4667 87.195 13.36C86.0483 11.2533 84.3283 10.2 82.035 10.2C79.7417 10.2 78.0217 11.2533 76.875 13.36C75.7283 15.4667 75.155 18.5467 75.155 22.6ZM112.843 33.2L106.043 14.12V37H102.803V8.2H107.243L114.443 28.84L121.083 8.2H125.483V37H122.123V14.12L115.843 33.2H112.843ZM151.206 37L149.086 29.28H139.006L136.846 37H133.486L142.086 8.2H146.246L154.806 37H151.206ZM139.766 26.68H148.366L144.126 11.32L139.766 26.68ZM179.635 8.2V37H175.235L165.875 12.68V37H162.795V8.2H167.315L176.635 32.16V8.2H179.635ZM208.459 32.24C207.712 33.84 206.685 35.1333 205.379 36.12C204.072 37.1067 202.352 37.6 200.219 37.6C199.152 37.6 198.019 37.4 196.819 37C195.645 36.5733 194.552 35.8 193.539 34.68C192.525 33.56 191.685 32.0267 191.019 30.08C190.352 28.1333 190.019 25.64 190.019 22.6C190.019 19.6133 190.339 17.1467 190.979 15.2C191.619 13.2533 192.432 11.72 193.419 10.6C194.432 9.48 195.539 8.70667 196.739 8.28C197.939 7.82667 199.112 7.6 200.259 7.6C201.299 7.6 202.232 7.73333 203.059 8C203.912 8.26667 204.659 8.62667 205.299 9.08C205.939 9.50667 206.485 10.0133 206.939 10.6C207.419 11.1867 207.805 11.8 208.099 12.44L205.099 13.6C204.672 12.5067 204.072 11.68 203.299 11.12C202.552 10.56 201.539 10.28 200.259 10.28C199.352 10.28 198.485 10.48 197.659 10.88C196.859 11.2533 196.152 11.92 195.539 12.88C194.925 13.8133 194.432 15.0667 194.059 16.64C193.712 18.2133 193.539 20.2 193.539 22.6C193.539 24.9733 193.725 26.9467 194.099 28.52C194.472 30.0933 194.965 31.3467 195.579 32.28C196.219 33.2133 196.939 33.88 197.739 34.28C198.565 34.68 199.419 34.88 200.299 34.88C201.765 34.88 202.885 34.52 203.659 33.8C204.432 33.0533 205.059 32.12 205.539 31L208.459 32.24ZM230.9 23.68H221.5V34.28H232.1V37H218.1V8.2H232.1V10.92H221.5V21.04H230.9V23.68Z" fill="#1E1E1E"/>
<path d="M20.3191 37.8841L19.0604 37.8841C19.0604 37.5844 18.9525 36.7333 19.2402 35.7263C19.5279 34.7194 20.3191 34.2279 20.6787 34.108V8.21467C20.6787 7.06386 19.9595 7.01591 19.5998 7.13578H13.8457V9.65319H18.1613V32.13L4.67519 31.9502L12.9467 24.5778C13.0066 18.1045 12.9467 4.79815 12.9467 3.7193C12.9467 2.99997 11.8678 2.82019 11.5082 3.17985C9.35037 5.39757 4.60326 10.2286 2.87704 11.811C1.15082 13.3933 0.239753 16.3063 0 17.565V36.985C0 39.5744 1.91803 40.2217 2.87704 40.2217C8.21155 40.5214 19.2402 40.2217 20.3191 40.2217C21.398 39.5025 21.0383 38.2438 20.3191 37.8841Z" fill="#363636"/>
<path d="M16.9026 34.6474H2.33751C2.33751 36.2658 2.15771 37.7043 3.95589 37.8841H16.5429C16.1114 36.1579 16.3631 35.5465 16.9026 34.6474Z" fill="white"/>
</svg>
